<?xml version="1.0" standalone="no"?>
<!DOCTYPE svg PUBLIC "-//W3C//DTD SVG 20010904//EN"
 "http://www.w3.org/TR/2001/REC-SVG-20010904/DTD/svg10.dtd">
<svg version="1.0" xmlns="http://www.w3.org/2000/svg"
 width="700.000000pt" height="700.000000pt" viewBox="0 0 700.000000 700.000000"
 preserveAspectRatio="xMidYMid meet">
<metadata>
Created by potrace 1.11, written by Peter Selinger 2001-2013
</metadata>
<g transform="translate(0.000000,700.000000) scale(0.100000,-0.100000)"
fill="#000000" stroke="none">
<path d="M3278 6995 c-1 -1 -41 -5 -88 -9 -87 -7 -105 -9 -225 -27 -116 -18
-123 -19 -192 -35 -184 -42 -248 -59 -369 -99 -459 -153 -871 -391 -1229 -709
-359 -319 -674 -745 -857 -1159 -27 -62 -53 -121 -58 -132 -46 -95 -150 -427
-176 -560 -2 -11 -10 -54 -19 -95 -29 -147 -36 -200 -52 -370 -15 -164 -8
-592 12 -711 2 -13 6 -46 9 -74 18 -158 76 -412 136 -595 78 -238 225 -560
333 -728 26 -40 47 -76 47 -81 0 -5 3 -11 8 -13 4 -2 33 -41 64 -88 52 -78
214 -285 263 -336 198 -208 293 -297 445 -419 92 -74 370 -265 386 -265 4 0
15 -6 23 -14 29 -25 304 -161 431 -213 269 -110 577 -194 835 -228 22 -2 56
-7 75 -10 186 -26 698 -27 838 0 16 3 104 15 147 20 321 41 827 219 1154 407
46 26 86 48 88 48 2 0 9 5 16 10 7 6 62 43 122 83 253 168 492 376 678 592 33
39 63 72 67 75 4 3 44 55 90 115 151 199 277 405 383 628 26 53 47 99 47 102
0 2 11 28 24 57 57 127 151 421 182 573 17 81 54 301 59 350 4 33 9 71 11 85
9 47 11 525 3 605 -15 165 -21 220 -24 225 -2 3 -6 30 -10 60 -17 137 -87 414
-153 602 -398 1140 -1403 2023 -2577 2263 -44 9 -89 19 -100 21 -11 2 -38 6
-60 9 -22 3 -51 7 -65 10 -13 2 -52 7 -86 11 -33 3 -74 8 -90 10 -32 5 -540
14 -546 9z m167 -1859 c39 -3 99 -8 134 -11 35 -3 89 -8 120 -11 31 -2 70 -6
86 -8 17 -3 57 -8 90 -11 33 -4 67 -8 75 -10 8 -3 40 -7 70 -10 185 -20 602
-107 835 -175 317 -92 542 -179 806 -310 269 -133 323 -173 371 -277 96 -204
-47 -445 -274 -459 -70 -4 -147 18 -230 67 -142 84 -374 189 -588 266 -88 31
-312 101 -349 108 -9 2 -43 10 -76 19 -198 51 -538 113 -730 132 -27 2 -59 6
-70 9 -11 2 -58 7 -105 10 -47 4 -101 9 -120 11 -168 17 -617 22 -835 10 -306
-17 -372 -25 -785 -93 -19 -3 -114 -26 -210 -51 -273 -73 -376 -63 -483 44
-61 62 -90 135 -91 229 0 67 4 89 27 136 33 68 94 131 156 160 42 20 351 103
428 115 20 3 45 8 57 10 30 7 173 32 221 39 22 3 51 7 65 10 14 2 48 6 75 9
28 4 61 8 75 11 14 2 61 7 105 11 44 3 94 8 110 10 17 2 86 6 155 10 69 3 126
8 128 9 6 5 680 -3 757 -9z m-261 -1200 c72 -4 149 -9 172 -11 62 -5 165 -15
204 -20 168 -22 163 -21 320 -49 162 -29 273 -54 435 -98 379 -103 738 -251
1080 -448 119 -69 176 -153 176 -262 1 -185 -180 -316 -355 -257 -31 11 -81
35 -111 54 -78 50 -312 166 -440 219 -361 147 -834 264 -1220 302 -33 3 -71 7
-84 9 -111 18 -539 24 -746 12 -279 -17 -567 -62 -790 -122 -33 -9 -67 -18
-76 -20 -8 -2 -38 -10 -66 -18 -143 -43 -280 18 -341 152 -21 45 -24 64 -20
121 9 124 75 205 201 247 84 28 328 89 390 98 23 3 50 8 59 11 19 6 35 9 98
19 25 4 53 9 64 11 10 2 44 6 75 10 31 3 58 8 61 9 3 2 46 6 95 10 50 4 101 8
115 11 14 2 93 7 175 10 83 3 151 7 152 8 4 3 259 -2 377 -8z m1 -1140 c72 -3
150 -8 175 -11 123 -13 168 -17 195 -21 17 -2 48 -7 70 -9 337 -43 778 -178
1100 -336 346 -170 408 -223 409 -353 1 -125 -92 -216 -221 -216 -48 0 -73 11
-203 85 -154 88 -398 196 -570 252 -81 26 -318 89 -372 98 -18 4 -51 10 -73
15 -22 5 -58 11 -80 14 -23 4 -50 8 -60 10 -11 2 -51 7 -90 11 -38 4 -77 9
-86 10 -123 23 -738 23 -857 0 -9 -1 -53 -6 -97 -9 -44 -4 -87 -9 -95 -11 -8
-2 -37 -6 -65 -10 -82 -9 -159 -23 -381 -67 -194 -38 -215 -40 -257 -29 -174
49 -217 270 -75 384 28 23 63 35 161 57 69 15 143 31 164 34 21 3 49 8 63 11
14 3 52 10 85 15 33 5 69 12 80 14 20 4 75 11 155 21 25 3 59 8 75 10 17 2 66
6 110 10 44 4 89 9 100 11 10 2 98 7 195 10 96 3 176 7 177 8 2 2 121 -2 268
-8z"/>
</g>
</svg>
